<svg width="354" height="49" viewBox="0 0 354 49" fill="none" xmlns="http://www.w3.org/2000/svg">
<path d="M16.7185 20.1982C17.3663 18.6182 19.3097 16.7853 21.8377 15.3475C25.7561 13.1355 30.1801 11.3501 36.0893 11.0815C37.7009 11.0025 40.8135 11.2079 43.5627 12.2665C46.4225 13.3725 47.5917 14.3364 48.8399 15.158C50.0407 16.0428 51.2415 16.8485 53.5167 18.9657C54.6385 20.0401 55.1441 20.2929 55.6497 20.2139C56.5661 20.0717 57.1191 20.4509 58.5569 22.3469C61.8433 26.7235 65.6511 31.1001 70.7861 33.8967C72.5557 34.9237 74.9415 35.7927 76.5215 35.7137C79.2549 35.6189 82.6677 35.4925 85.2273 33.5333L85.9699 32.9803C89.7145 29.5991 91.2945 24.2587 92.6375 19.8663C92.8271 19.2185 93.5539 17.9861 94.2175 17.0697C95.5921 15.0315 97.6145 13.3093 100.095 12.7247C103.84 11.7767 107.884 13.4831 110.807 15.0473C113.936 16.7063 116.78 18.7445 119.482 20.8775C124 24.4483 128.251 28.5089 133.085 30.5471C134.318 31.0369 135.977 32.0323 137.509 32.6485C138.6 33.0909 139.69 33.5649 140.796 33.8493C145.283 34.9869 150.007 34.9079 153.704 32.8855C157.402 30.9105 159.851 26.7867 163.121 22.6313C163.816 21.7939 164.559 20.9091 165.191 20.1507C167.893 16.6115 172.917 14.3363 177.578 14.2889C179.948 14.1783 182.208 14.6365 184.372 15.2053C190.708 16.9907 196.048 20.5931 200.678 24.6221C205.197 28.5405 209.415 32.5379 214.076 35.2871C220.681 39.5531 228.47 39.3477 234.585 34.7973C235.975 33.8335 238.234 32.3799 238.424 31.5899C238.708 30.5313 236.18 32.2536 234.948 32.538C234.221 32.6959 233.431 32.9329 233.637 32.3641C233.81 31.9217 234.521 31.4793 235.232 30.9263C235.912 30.4365 236.67 29.8835 237.255 29.3147C237.634 28.9671 237.966 28.4299 237.95 28.2403C237.903 27.8769 237.176 28.3035 236.417 28.8565C234.316 30.4207 232.23 31.7321 230.255 32.6011C226.937 34.0863 223.983 34.2444 220.902 33.3279C217.789 32.4116 214.376 30.0889 210.837 27.1659L201.657 19.2027C198.071 16.2797 194.137 13.6885 189.539 11.6819C187.501 10.8603 185.257 10.0703 182.95 9.78591C179.759 9.34351 176.235 9.31193 172.712 10.1967C169.22 11.0499 165.776 12.8986 163.216 15.158C161.083 17.0066 159.471 19.0447 158.286 20.7669C155.253 25.4279 153.041 28.0665 150.781 28.7617C149.107 29.4095 146.863 29.3937 144.525 29.1883C138.457 28.7301 132.801 24.6853 126.276 19.5977C122.136 16.5009 117.633 12.709 111.992 10.023C111.202 9.64375 110.349 9.2487 109.433 8.8853C108.343 8.4587 107.142 8.07951 105.973 7.81091C103.603 7.27371 101.154 7.22635 98.8153 7.74775C95.2761 8.56935 92.1951 10.8129 89.9831 13.7359C89.4301 14.3995 88.8613 15.3001 88.4347 16.0269C88.0397 16.6747 87.7553 17.2435 87.4235 17.8597L85.8435 21.1935C84.4057 24.5747 82.9679 27.1027 81.9567 27.8453C81.1667 28.3667 80.5031 28.7459 79.1759 28.7143C77.8961 28.7301 76.2371 28.3035 74.6097 27.5451C71.2285 26.0599 68.7005 23.4371 65.4931 19.5345C63.6287 17.2751 61.5905 14.8261 60.7057 12.5667C60.4529 11.9505 59.6471 10.9709 58.7781 10.0861C57.1191 8.37972 55.1757 6.56275 52.9795 5.28295C49.7563 3.41855 47.1809 2.42307 45.0637 1.25387C43.2309 0.242674 40.4501 -0.19971 38.2381 0.0846896C35.7259 0.46389 34.0669 0.384955 31.5547 0.448155C27.5731 0.542955 23.2123 1.94913 19.4045 3.87673C17.9667 4.55613 16.9239 5.40935 16.3077 6.07295C13.7165 8.93275 11.8679 11.8873 10.3195 14.8577C10.1457 15.1895 10.3669 15.3159 10.6513 15.2685C11.0621 15.2053 11.8205 14.8104 12.2313 14.763C13.3689 14.6682 12.6263 15.869 10.6355 17.8282C9.19768 19.2818 7.75988 20.7827 6.43268 22.3311C3.95208 25.3015 2.22988 28.3509 2.16668 29.9309C2.11928 31.2423 1.40828 32.9487 0.55508 34.9869C-0.0769197 36.4879 -0.42452 37.7835 0.95008 36.7407C1.62948 36.2193 1.97708 36.2668 1.92968 36.8829C1.85068 38.0048 2.73548 37.1989 3.90468 35.7927C7.41228 31.6057 10.6987 27.166 14.3801 23.3582C15.5177 22.1574 16.3393 21.083 16.7185 20.1982Z" fill="#D01919"/>
<path d="M299.096 21.1778C297.263 22.742 294.972 25.8071 292.934 28.7301C291.86 30.2311 290.801 31.6374 289.174 33.3122C287.309 35.1134 285.16 36.6776 282.854 37.357C278.224 38.9686 272.868 37.4833 269.487 33.9441C267.717 32.2061 266.248 29.9625 265.395 28.6985C264.605 27.5451 264.194 26.9447 263.42 26.1705C262.614 25.3647 261.492 24.7644 260.307 24.9224C258.917 25.0804 257.827 26.0284 256.847 26.9132L252.091 31.4161C248.568 34.7657 244.886 38.2575 240.383 41.2437C235.944 44.1983 230.256 46.6631 224.125 46.5683C217.979 46.5841 212.307 44.0403 207.899 41.0699C202.653 37.5623 198.45 33.4069 194.342 29.9309C190.487 26.6761 186.031 23.9901 181.734 22.8999C178.068 21.9993 175.019 22.4733 172.633 24.2903C170.121 26.1231 167.893 30.089 164.322 34.3866C162.252 36.8672 159.203 39.4583 155.664 40.8961C152.14 42.3497 148.412 42.729 144.951 42.5078C138.047 41.939 131.995 39.3004 126.766 35.7928C121.425 32.222 117.049 28.1929 112.688 25.0645C110.507 23.4845 108.359 22.1257 106.178 21.0987C105.641 20.8143 105.088 20.6089 104.677 20.4509C104.393 20.3561 104.108 20.2614 103.808 20.1982C103.224 20.0718 102.607 20.0402 102.023 20.1982L101.565 20.372C100.727 20.6722 100.143 21.3989 99.7159 22.1257C99.2419 22.9157 98.2939 24.9855 97.4881 26.8657C95.9871 30.0573 94.4387 34.3708 89.9989 38.147C86.2859 41.1806 81.0087 42.2866 76.8217 41.623C72.5083 41.0384 68.9375 39.3319 65.8091 37.2305C62.6649 35.1765 59.8999 32.2377 57.8933 29.8203C53.2165 24.1165 49.5983 18.239 45.3639 17.3068C45.1427 17.2436 44.7635 17.0856 44.4949 16.9276C41.0821 15.0158 36.6739 14.9051 32.0603 15.6161C24.5553 16.6589 17.7139 21.5096 11.6941 28.193C10.0351 30.0258 8.85012 31.8586 7.96532 33.723C7.09632 35.5874 7.75992 35.8243 9.27672 34.3233C10.4933 33.1225 11.6467 31.7005 12.8001 30.2943C14.8383 27.8611 16.9239 25.6018 19.1517 23.7216C23.9549 19.5978 29.0741 17.4173 34.5567 16.5483C35.6627 16.4219 37.0057 16.2324 37.8431 16.7222C37.1321 17.1962 34.9201 16.9118 34.1933 17.7176C34.7779 17.6544 35.2519 17.7808 35.6943 17.7018C42.2513 17.1646 45.5851 18.9658 51.2889 26.7078C52.1421 27.8454 53.1533 29.0303 54.1961 30.2785C55.8235 32.2061 57.3719 34.0231 59.7577 36.2509C63.5813 39.6479 67.9263 42.3181 73.3773 43.7243C76.0949 44.3879 79.1759 44.6881 82.4307 44.1509C85.7329 43.6137 88.9561 42.1443 91.4525 39.9955C92.6217 38.9211 93.6329 37.8783 94.3755 36.8039C96.3189 34.1653 97.8199 31.2739 98.8153 29.0145C99.8107 26.7393 100.664 24.7801 101.343 23.5161C101.58 22.9157 101.912 22.3786 102.544 22.1416C103.145 21.9836 103.445 21.952 104.377 22.347C105.925 23.0422 107.695 24.0849 109.291 25.3647C110.128 25.9493 111.092 26.6287 111.993 27.2449C115.437 29.8361 118.692 32.2694 122.073 34.7974C126.687 38.4156 132.88 42.1601 139.579 43.4557C144.493 44.4511 150.26 45.0515 155.806 42.8395C158.65 41.7177 161.383 39.9007 163.437 37.9257C165.476 35.9507 166.977 33.9599 168.272 32.2061C170.816 28.6511 172.775 26.1073 174.482 25.2857C176.773 23.8637 180.549 24.0534 184.894 26.0126C189.318 27.9718 192.952 31.0053 197.486 35.1607C202.953 39.9323 209.463 45.9205 219.18 47.8639C225.5 49.1279 232.183 47.7218 237.397 45.0832C240.715 43.44 243.559 41.4017 246.135 39.3003C249.468 36.5353 252.423 33.6755 255.251 30.9895L258.301 28.1455C258.854 27.6715 259.501 27.2133 260.26 27.1343C260.781 27.1027 261.318 27.2134 261.761 27.4978C262.172 27.7506 262.472 28.1613 262.819 28.4457C263.135 28.7459 263.357 28.9671 263.704 29.4253L265.916 32.4747C267.939 35.1765 270.53 37.4201 273.595 38.5893C276.866 39.6637 280.594 39.7585 283.596 38.1785C285.634 37.1831 287.499 35.8244 289.142 34.2128C290.801 32.5696 291.686 31.4794 292.745 30.168C294.783 27.64 296.536 25.1909 298.322 23.1053C298.701 22.6471 299.096 22.1731 299.46 21.7307C299.618 21.5095 299.823 21.1461 299.602 21.0355C299.475 20.9723 299.238 21.0672 299.096 21.1778Z" fill="#D01919"/>
<path d="M218.232 38.5261C209.305 35.4293 202.906 27.2291 194.358 21.2725C188.338 17.3067 180.533 13.8622 172.759 16.485C168.951 17.7648 166.044 20.6878 163.911 23.595C161.699 26.518 159.882 29.5358 157.433 31.8742C153.183 36.1086 146.594 36.6143 140.748 35.3029C137.557 34.6709 134.823 33.5017 132.833 33.2963C131.774 33.1857 130.399 32.5695 128.756 31.4477C126.908 30.1521 125.043 28.8722 123.242 27.6082C122.784 27.2764 122.12 27.0237 121.962 27.0869C121.678 27.2291 122.199 27.8926 123.068 28.6036C125.391 30.547 127.761 32.5695 130.573 34.0863C132.69 35.2081 134.902 36.2351 137.004 37.1831C140.906 38.9527 145.33 39.7426 149.786 38.9684C151.429 38.7156 153.136 38.1627 154.668 37.5781C161.81 34.7815 164.67 27.8453 168.493 23.8163C172.111 19.5661 177.641 18.3969 183.077 20.0875C188.528 21.6359 193.489 25.0328 197.929 29.0144C202.621 33.0908 207.282 37.5623 213.191 40.8171C216.494 42.6341 220.207 43.503 223.762 43.1554C228.565 42.713 233.368 40.6749 237.713 37.9573C242.816 34.8447 246.877 30.7209 250.874 26.6761C252.486 25.0803 254.066 23.5477 255.788 22.2521C257.163 21.2567 258.743 20.4035 260.449 20.2613C261.129 20.2613 261.808 20.2454 262.424 20.435C266.975 21.778 268.602 26.8973 271.92 30.3259C273.484 32.1903 275.744 33.3437 278.161 33.4859C280.626 33.5807 282.79 32.1902 284.623 30.6892C287.657 28.019 290.043 24.7326 292.334 21.4936C293.029 20.4666 293.882 19.3607 293.471 19.2027C293.124 19.0763 292.128 20.0243 291.338 20.8617C290.311 21.9045 289.474 23.1369 288.557 24.3377C285.54 27.9559 282.869 31.6847 278.509 31.9375C276.534 31.9375 274.606 30.9579 273.563 29.4411C272.347 27.7663 271.636 26.2495 269.945 23.7057C268.302 21.2567 266.248 18.8708 263.388 18.0492C262.456 17.7806 261.476 17.7174 260.497 17.749C258 17.9702 255.788 19.3132 253.797 20.9248C249.547 24.4798 246.371 27.4661 242.88 30.6577C237.681 35.4767 231.583 39.4898 224.931 39.6636C222.64 39.7426 220.396 39.2687 218.232 38.5261Z" fill="#D01919"/>
<path d="M98.6256 17.0067C96.4452 18.5077 95.2918 21.0041 93.8698 24.0377C92.9376 26.0601 92.0212 28.2404 90.694 30.2154C89.6828 31.6848 88.5136 33.1384 87.0126 34.3234C82.7466 37.6888 76.7584 37.4202 72.3818 35.4136C71.2126 34.908 69.7906 34.2919 68.8584 33.8969C67.0414 33.2017 64.8452 31.353 63.5338 30.7684C64.308 32.5696 67.0098 34.3234 69.1902 35.6506C69.6484 35.9508 70.1856 36.2036 71.2916 36.7408C73.5984 37.7204 76.8058 38.7948 80.2818 38.4788C82.9678 38.2734 85.7644 37.2622 87.9132 35.5084C91.4682 32.4906 92.9692 28.6671 94.407 25.4281C95.118 23.7849 95.7974 22.2206 96.5558 20.846C97.1878 19.6926 97.962 18.634 99.0206 17.8756C99.6684 17.3858 100.506 17.1173 101.138 16.8013C101.391 16.7065 101.58 16.6275 101.754 16.5169C101.975 16.4063 101.643 16.2483 100.996 16.2483C100.364 16.2957 99.4156 16.4853 98.6256 17.0067Z" fill="#D01919"/>
<path d="M25.598 20.1823C23.2596 21.3989 20.7474 23.2316 18.5828 25.3804C14.9014 29.046 11.4728 33.4542 7.94943 38.2258L5.42143 41.7177C4.86843 42.5077 4.29963 43.4556 4.56823 43.661C4.74203 43.7874 5.24763 43.1871 5.67423 42.5867C8.36023 38.8105 10.9672 35.1922 13.7006 32.0006C15.5808 29.5674 17.5874 27.4028 19.7204 25.57C21.7902 23.753 23.9232 21.9993 25.993 20.7827C26.4354 20.4983 26.7672 20.2296 26.6724 20.0242C26.5776 19.803 26.0246 19.9295 25.598 20.1823Z" fill="#D01919"/>
<path d="M186.094 8.72732C190.945 10.1177 194.958 12.2507 198.545 14.6839C200.725 16.2007 202.969 17.9387 204.833 19.5503C205.165 19.8347 205.765 20.2297 205.876 20.2139C206.192 20.1823 205.655 19.5661 205.102 19.0447C203.064 17.1329 200.646 15.0473 198.102 13.4989C192.098 9.94386 184.957 6.21505 175.224 7.06825C173.217 7.27365 171.148 7.79508 169.204 8.58508C175.335 6.70488 181.354 7.35272 186.094 8.72732Z" fill="#D01919"/>
<path d="M141.791 27.7031C143.276 28.1455 144.73 28.7775 145.646 28.2719C146.105 27.9559 145.014 27.8611 142.202 27.0711C140.748 26.6445 139.279 25.7281 137.794 25.4911C138.315 26.7235 140.559 27.2133 141.791 27.7031Z" fill="#D01919"/>
<path d="M246.087 21.6042C247.098 20.7826 248.062 19.6293 248.078 19.2501C248.078 18.7761 247.035 19.2659 245.66 20.3877C244.602 21.2567 243.654 22.3784 243.733 22.6944C243.828 23.0894 244.807 22.647 246.087 21.6042Z" fill="#D01919"/>
<path d="M88.3397 13.6411C90.1093 11.0657 92.0843 9.13806 94.3753 7.68446C94.8651 7.36846 95.4023 6.91028 95.2127 6.91028C94.9915 6.91028 93.9171 7.35266 93.3641 7.68446C91.1837 9.13806 89.2561 11.0499 87.5497 13.6411C85.8433 16.4219 85.2429 18.1599 84.4055 20.5299C85.0375 19.3449 85.6221 18.2547 86.1593 17.2593C86.7755 16.1691 87.3285 15.1579 88.3397 13.6411Z" fill="#D01919"/>
<path d="M305.211 19.4397C305.068 19.4081 304.942 19.424 304.895 19.4872C304.831 19.5504 304.926 19.8031 305.021 19.9295L305.037 19.9453C305.779 20.6247 306.159 21.4463 307.012 22.0783C306.806 21.1619 306.364 20.1191 305.432 19.5187C305.369 19.4871 305.29 19.4555 305.211 19.4397Z" fill="#D01919"/>
<path d="M73.8986 25.823C74.3568 25.9968 74.7518 26.06 74.5622 25.7124C74.4832 25.5544 74.2146 25.3331 73.9934 25.1435C73.3298 24.6063 72.6504 24.164 72.0658 24.0376C71.892 24.006 71.734 24.0849 71.7498 24.2271C71.7656 24.3535 72.0026 24.6537 72.2554 24.9697C72.7294 25.2699 73.3298 25.5702 73.8986 25.823Z" fill="#D01919"/>
<path d="M334.362 28.6985C334.172 28.7933 333.872 28.9987 333.903 29.0145C334.046 29.0619 334.314 29.1409 334.567 29.0303C335.673 28.5405 336.779 27.9243 337.838 27.2449C339.765 25.9967 341.756 24.5431 342.878 22.8525C341.329 23.5319 339.465 25.6333 337.474 26.8499C336.479 27.4661 335.42 28.1455 334.362 28.6985Z" fill="#D01919"/>
<path d="M340.982 16.6905C340.919 16.6589 340.903 16.5641 340.808 16.6273C339.971 17.1961 339.181 18.0967 338.391 18.9973C338.154 19.2817 337.917 19.6609 337.932 19.7873C337.964 20.0717 338.533 19.6767 339.102 19.1869C340.034 18.3495 340.792 17.4331 340.982 16.6905Z" fill="#D01919"/>
<path d="M353.132 7.65291C352.247 9.02751 351.315 10.4178 350.636 12.0294C351.726 10.876 352.627 9.37502 353.464 7.85822C353.559 7.68442 353.654 7.40006 353.654 7.30526C353.654 7.03666 353.448 7.17891 353.132 7.65291Z" fill="#D01919"/>
<path d="M148.569 26.8657C148.822 26.7393 149.059 26.5972 148.901 26.4076C148.838 26.3444 148.585 26.3759 148.38 26.3759C148.127 26.4391 147.827 26.5181 147.558 26.5971C147.384 26.6445 147.274 26.7709 147.132 26.8657C147.29 26.9289 147.463 27.0237 147.637 27.0395C147.969 27.0237 148.301 26.9605 148.569 26.8657Z" fill="#D01919"/>
</svg>
