<svg width="97" height="97" viewBox="0 0 97 97" fill="none" xmlns="http://www.w3.org/2000/svg">
<path d="M95.2576 68.1809C92.2323 72.7647 88.801 77.2175 84.4398 80.5179C84.2827 80.6489 84.0862 80.8323 83.9684 80.9894C82.9075 82.3122 81.3622 83.1373 79.9608 84.0933C78.5333 85.0494 76.87 86.3459 75.8878 85.7696C75.8616 85.7565 75.508 85.9399 75.3115 86.0447C72.4565 87.446 69.4704 88.5199 66.6154 89.6986C64.9914 90.3797 63.5638 90.5499 61.9268 90.7988C62.6995 90.1178 63.9306 89.9213 64.939 89.6594C70.492 88.0354 75.9009 85.4684 80.5894 81.9978C82.2396 80.806 83.51 79.4832 84.2172 78.1343C83.6148 78.1605 83.0647 78.6844 82.6063 79.0642C80.1704 81.068 77.4725 82.7051 74.696 84.1719C68.5144 87.433 61.7303 89.3188 54.907 89.8558C45.2679 90.6023 35.5502 88.795 26.8278 84.3422C24.955 83.373 23.2132 82.2336 21.6285 80.8192C25.3872 82.967 29.3162 84.5386 33.2321 85.3768C35.1442 85.7697 37.1873 86.359 38.9422 87.2889C39.8197 87.7735 40.9853 88.0091 42.1378 88.2056C51.4102 89.8165 61.1934 88.8081 69.9812 85.0493C72.4172 84.0278 74.7877 82.7967 77.0403 81.3823C80.118 79.4833 82.8814 77.0866 85.3697 74.4804C85.6578 74.1791 85.9722 73.7993 85.9329 73.5767C85.8543 73.1838 85.409 73.7208 85.0554 74.0089C84.7411 74.2447 84.4006 74.4804 84.4136 74.153C84.5184 73.7601 84.9375 73.3803 85.2649 73.0136C89.7702 68.1416 93.2932 62.2874 95.2315 55.8439C95.9125 53.7091 96.528 51.2077 95.8208 49.4397C95.6506 48.9813 95.8077 48.274 95.847 47.6585C95.9387 45.2749 95.7291 42.839 95.1529 40.4292H94.8909C95.3755 44.5808 95.7946 49.3611 93.7908 53.3948C94.6683 49.1646 94.8517 45.3404 94.223 41.3852C94.0004 42.171 94.1575 42.9568 94.223 43.7688C94.5242 46.5191 94.1706 49.2432 93.5682 51.8494C92.6907 55.4772 91.3942 58.974 89.5213 62.1565C87.9497 64.802 86.1555 67.3296 84.0993 69.6215C81.9777 71.9789 79.6203 74.0875 77.0665 75.9341C72.2469 79.4571 66.6939 81.9324 60.8921 83.1896C60.2111 83.3206 59.7527 83.2551 59.1241 83.0325C65.214 81.749 70.6098 79.2475 75.3639 75.921C82.8945 70.6561 88.9058 62.9161 91.368 53.958C92.18 50.9065 92.18 47.8026 92.1014 44.7118C92.1014 44.5022 91.9835 44.1879 91.774 44.1748C91.6037 44.5546 91.5251 45.0785 91.5382 45.7333C91.5513 49.8849 90.3595 53.9449 88.7748 57.8215C86.902 62.3136 84.0077 66.295 80.6549 69.7656C78.3237 72.1623 75.6913 74.297 72.7839 75.921C68.3703 78.3831 63.577 79.9023 58.6395 80.8453C58.3907 80.8977 58.1288 80.8453 58.1157 80.7013C58.168 80.5572 58.3383 80.4394 58.6133 80.4001C62.3066 79.8631 65.7248 78.3832 69.0513 76.7723C76.3723 73.2886 82.2265 67.107 86.2079 60.1265L86.8103 58.9478C87.9497 56.3154 88.9058 53.5651 89.4689 50.841C89.7047 49.623 90.0059 48.3002 89.7178 47.0954C89.5737 46.6108 89.7571 46.0869 89.8226 45.6547C90.0714 44.3582 89.8226 43.0485 89.5737 41.7912C89.3511 40.6518 88.6308 39.8267 88.395 38.8314C88.0807 37.4039 87.1377 36.2382 86.1162 35.256C85.9983 35.1381 85.8281 35.0727 85.6971 34.9679C85.7233 33.5011 85.134 32.0735 84.3351 30.5936C83.6933 29.5328 83.6148 29.1399 83.8505 28.7339C84.2434 28.0267 84.8458 28.2755 85.9983 29.7293C86.627 30.6067 87.1378 32.0474 88.0021 32.3748C85.8019 27.8172 84.0731 25.2371 82.5932 22.1856C83.1957 22.6702 83.6802 23.1941 84.2303 23.9144C86.9151 27.4767 89.2856 31.3532 90.8703 35.6489C91.2108 36.6967 91.5251 37.1289 91.6954 36.6443C92.0359 35.662 92.5336 36.6574 93.0574 37.6265C93.673 38.7659 94.4064 39.8398 94.6683 38.9231C95.0088 37.6003 95.5065 36.2514 94.9826 33.5535C94.6028 31.6937 93.0705 28.4589 94.2754 28.2362C94.3278 28.2231 94.2885 27.8695 94.2099 27.7386C93.0443 25.6431 93.136 24.412 92.4157 22.8273C91.6692 20.9938 90.6084 19.7627 89.4428 19.3306C88.7225 19.0424 88.1593 18.3483 87.5176 17.6018C84.1779 14.0133 80.3406 11.0011 76.333 8.35559C67.6369 2.77644 57.0941 -0.117942 46.0013 0.838111C48.0706 1.12624 49.8779 0.982202 51.8031 1.11317C54.8284 1.15246 57.8406 1.61083 60.7481 2.25257C61.7172 2.48831 62.8435 2.75021 63.446 3.16931C64.7818 4.15155 66.4189 4.78019 68.3572 5.42193C69.3002 5.80173 71.1075 6.44349 70.767 6.92807C70.5312 7.26858 69.1037 6.33869 68.1739 5.9196C65.9081 5.04213 63.5246 3.95512 61.1279 4.00751C62.0054 4.55757 63.2364 4.67543 64.0615 5.1862C64.5985 5.50051 65.345 5.84103 65.1093 6.08986C64.9259 6.28631 64.4937 6.39108 63.7341 6.16844C62.3066 5.77554 60.8529 5.63148 59.3729 5.26477C56.2821 4.63613 52.8377 4.02059 50.022 4.80638C49.7993 4.88496 49.3409 4.87188 49.0004 4.89807C43.8666 5.13381 38.6803 6.3387 34.2536 8.6699C29.8794 10.9225 25.3479 13.3192 21.7595 16.7374C21.2356 17.2351 20.5546 17.6542 19.9521 18.0864C19.5723 18.3614 19.3497 18.4269 19.2711 18.2173C19.0747 17.7982 21.1308 15.0087 21.9952 14.4848C24.3002 13.2406 26.7362 11.5512 28.7662 10.2022C32.0403 8.06747 35.6157 6.71851 39.3613 5.85414C42.3604 5.08144 42.3735 5.30409 43.5784 3.94204C39.1256 4.23017 34.7775 5.71005 30.914 7.75312C24.6538 11.0273 19.1271 15.2313 14.6087 20.3783C13.5872 21.6225 12.5263 22.8273 11.5441 24.137C7.58892 28.9565 4.39335 34.8238 3.09679 41.4376C2.25861 45.8643 1.55139 50.3957 2.14074 55.0188C2.27171 56.3416 2.12764 57.075 1.64306 57.1012C1.69545 54.5342 1.42042 54.5342 1.14539 49.6492C1.11919 49.1646 1.14539 48.6408 1.17159 48.13C1.31565 46.1262 1.56449 44.0962 1.99668 42.1841C3.4504 36.199 5.70302 30.5281 8.72834 25.355C11.4524 20.6402 15.0016 16.41 19.1271 12.756C21.419 10.713 24.0645 9.16757 26.9981 7.1114C25.0729 7.92339 23.3965 8.80088 21.9821 9.99267C18.577 12.5465 15.5255 15.4671 12.749 18.5055C5.59824 26.5992 1.38113 37.0895 0.18934 48.2479C-0.491684 55.6998 0.634621 63.1387 4.05284 70.3288C6.26616 75.0566 9.57962 79.6142 13.2991 83.0717C17.0316 86.5947 21.1701 89.3058 25.4527 91.2965C29.0805 92.9859 32.813 94.1515 36.5586 95.1206C43.4606 96.9018 50.6637 97.3471 57.7621 96.4172C58.5479 96.3386 59.5432 96.2076 59.6742 95.7493C55.1034 96.391 50.572 96.3255 46.0144 96.1029C42.164 95.9195 38.4053 95.1075 34.7906 93.955C28.9102 92.1084 23.1477 89.476 17.8043 85.5339C13.299 82.2205 9.06886 77.7283 6.23999 72.3456C5.86019 71.6646 5.25774 70.5907 5.70302 70.3157C8.24377 74.7292 11.5179 79.6404 15.5648 82.3383C15.7219 82.1157 15.3683 81.749 15.0278 81.3954C14.5039 80.793 14.0717 80.2167 14.4908 80.1774C14.779 80.1512 15.3159 80.5834 15.8005 81.0025C16.6518 81.7228 17.5162 82.4562 18.3412 83.1503C21.0261 85.4684 24.0907 87.1448 27.1422 88.6116C28.334 89.1747 29.5258 89.3712 30.6652 89.9606C33.4155 91.3619 36.4801 92.043 39.5054 92.6061C41.2996 92.9204 43.1331 93.0383 44.9012 93.4312C50.9256 94.7147 57.3823 93.8372 63.5377 92.7239C65.9474 92.2656 68.4096 91.3095 70.7277 90.3011C77.407 87.4198 83.5624 83.2944 88.4998 78.0688C91.1715 75.24 93.3717 72.0575 95.4541 68.744C95.7553 68.2464 96.384 67.5785 96.0827 67.2511C95.7422 67.3689 95.4803 67.8273 95.2576 68.1809ZM45.3334 81.4478C45.019 81.3823 44.6 81.2513 44.6392 81.0418C44.6785 80.8584 45.0191 80.8322 45.3989 80.8584C46.8264 80.9239 48.1361 81.1597 49.4588 81.4609C48.0837 81.5133 46.7478 81.7228 45.3334 81.4478ZM67.1785 10.3987C65.8427 9.74383 64.3758 9.35094 62.8042 8.77469C64.4937 9.1283 64.5723 9.02352 67.1785 10.3987ZM59.5039 7.74005C52.3401 6.32562 44.7964 7.12448 37.6195 9.02349L37.5016 8.77469C44.5476 6.39111 52.3532 6.05059 59.5039 7.74005ZM33.7953 10.5951C30.7045 12.3893 28.8971 13.4894 26.4481 14.7991C27.8363 13.1882 31.32 11.1452 33.7953 10.5951ZM25.3217 46.781C25.8325 44.5808 26.7755 42.4985 27.2862 40.2066C27.666 38.8838 28.1899 37.5741 29.1983 36.5002C29.6436 35.937 30.1151 35.3084 30.377 34.6405C30.8747 33.0296 32.132 31.1044 33.4678 30.2662C34.6465 29.3887 35.7728 28.603 36.7813 27.6338C37.1742 27.3064 37.554 27.0575 37.96 27.0052C39.0863 26.8218 40.0947 26.2718 41.1555 25.8265C43.8273 24.8442 46.3156 23.5084 49.3409 23.9013C50.9649 24.0977 52.877 24.1763 54.7629 24.1632C55.5356 24.2156 56.3345 24.4906 57.1203 24.7394C59.4384 25.7217 61.7958 25.8788 64.0877 26.7956C64.5199 26.9397 64.8473 26.8349 65.0569 26.6908C65.8427 26.1408 67.1392 26.5992 68.3834 27.2278C69.7848 28.0267 71.1206 28.6684 72.4172 29.3102L69.5752 28.2624C69.1561 28.1053 68.8811 28.1577 68.8025 28.3279C68.7239 28.4982 68.8156 28.6815 69.2085 28.8649L70.2693 29.2709C72.797 30.1876 75.377 31.2616 77.5118 32.3879C79.0441 33.1999 80.4847 33.8547 81.755 34.575C82.0956 34.9286 82.4492 35.2429 82.7635 35.7013C83.5624 36.9979 84.1255 37.3384 84.8197 37.0896C84.8459 37.0765 84.8589 37.0503 84.8982 37.0372C85.1602 37.3515 85.4614 37.6396 85.6447 37.9801C87.177 40.8614 87.6616 44.7773 86.9806 48.8765C86.6925 50.7624 85.9591 52.5042 85.3697 54.4556C85.1078 55.2021 84.7673 56.0665 83.8898 56.6297C84.5839 54.1413 85.8412 51.9018 85.7364 49.4397C85.4614 50.0945 85.2256 50.4219 85.1078 50.7886C84.2958 53.1591 83.4969 55.5034 82.6849 57.8477C82.6194 58.0572 82.4492 58.3846 82.4885 58.4501C83.0647 59.3538 82.1087 60.5849 81.4145 61.5278C80.0918 63.4007 78.5071 65.077 76.8831 66.57C76.464 66.4652 76.6212 66.0592 76.6081 65.758C76.595 65.2865 76.0449 65.7973 75.8092 65.745C75.4687 65.6664 75.7044 65.3389 75.9663 65.0377C77.2367 63.715 78.1928 62.1826 79.2536 60.7158C81.1657 58.0179 82.7242 54.9533 83.1433 51.4303C82.0039 53.9187 81.0216 56.1844 79.7251 58.2406C75.652 64.6972 69.1954 69.6739 62.0708 71.8742C61.6648 72.0051 61.1017 72.267 60.866 72.0968C60.1456 71.5598 59.2158 72.0575 58.2728 72.2147C57.3168 72.3587 56.2559 72.8695 54.8415 72.4111C58.2073 72.0575 60.9183 71.0753 63.3674 69.7132C62.2935 69.9097 61.285 70.0537 60.2766 70.1323C60.0933 70.1454 59.8051 70.1454 59.7527 70.1978C58.6264 71.2717 56.8846 71.1932 55.3916 71.4944C55.3261 71.5075 55.2082 71.4289 55.1296 71.3896C55.2213 70.9574 56.1905 71.1015 56.2952 70.6824C54.7498 70.5776 53.3616 70.7086 51.5673 71.1539C52.471 71.311 53.558 70.905 54.2129 71.4551C53.6759 71.8611 53.0342 71.8087 52.4186 71.8087C49.6291 71.8218 46.8788 71.4157 44.1154 71.0228C43.7356 70.9836 43.2117 70.7347 43.0415 71.036C42.8319 71.3765 43.4475 71.455 43.8011 71.586C45.0976 72.0575 46.4597 72.4897 47.9265 72.5421C48.4896 72.5814 49.0528 72.6206 49.1969 73.0004C49.079 73.0921 49.0528 73.1445 49.0135 73.1576C48.6468 73.1838 48.2932 73.21 47.9265 73.1838C43.0938 73.0267 38.1957 71.5205 34.3453 69.1631C33.4547 68.6131 32.4463 68.1285 32.2106 67.1855C32.1582 67.0022 31.8308 66.7141 31.595 66.5438C30.4032 65.758 29.6174 64.6448 28.7792 63.7805C27.6529 62.6149 27.4041 61.279 27.0898 59.8515C26.8672 58.8168 26.7362 57.7691 26.3826 56.669C25.5313 53.8925 25.4265 51.0767 25.1777 48.1169C25.1253 47.6454 25.1908 47.2132 25.3217 46.781ZM39.4792 90.7857C38.8898 90.7988 38.0516 90.6416 37.3051 90.4975C36.8729 90.4058 36.5062 90.1832 36.5062 89.9868C36.5062 89.7642 36.6634 89.5546 37.3575 89.8034C38.3529 90.1177 38.8636 89.8558 39.859 89.9344C40.0685 90.3927 40.1733 90.7595 39.4792 90.7857Z" fill="#DF2020"/>
<path d="M35.1442 68.4559C34.9739 68.875 35.5371 69.0322 35.943 69.2155C36.3359 69.3727 36.5193 69.281 36.5848 69.0322C36.6634 68.744 36.8336 68.4821 36.349 68.1547C35.6287 67.6701 34.9346 67.1986 33.9393 66.9367C34.2012 67.6439 35.393 67.788 35.1442 68.4559Z" fill="#DF2020"/>
<path d="M88.6307 34.0118C89.3118 36.7359 89.2725 36.9323 90.6476 40.0624C90.3726 37.6788 90.0321 35.6227 88.6307 34.0118Z" fill="#DF2020"/>
<path d="M80.7728 10.0058C83.1957 12.0358 85.3697 14.2884 87.7795 16.5672C85.8936 14.0265 83.4838 11.8 80.7728 10.0058Z" fill="#DF2020"/>
<path d="M69.1823 3.20856C71.6444 4.53131 74.0149 5.91953 76.8307 7.39945C74.5388 5.29089 71.7361 4.36106 69.1823 3.20856Z" fill="#DF2020"/>
<path d="M33.5463 66.9105C32.8391 66.1248 32.8522 66.1379 31.9354 65.8235C32.3676 66.3343 32.6819 66.8058 33.5463 66.9105Z" fill="#DF2020"/>
<path d="M57.1595 0C59.3598 0.523864 60.8135 0.785795 62.3065 1.02153C60.879 0.628636 59.4907 0.0523864 57.1595 0Z" fill="#DF2020"/>
<path d="M89.469 72.66C90.2286 72.0183 90.7263 71.2325 91.237 70.0931C89.9536 71.4813 89.9798 71.4813 89.469 72.66Z" fill="#DF2020"/>
</svg>
