<svg xmlns="http://www.w3.org/2000/svg" width="65" height="24" viewBox="0 0 65 24">
  <g id="Group_1" data-name="Group 1" transform="translate(4304 1298)">
    <g id="Group_2" data-name="Group 2">
      <rect id="Rectangle_2" data-name="Rectangle 2" width="65" height="24" transform="translate(-4304 -1298)" fill="#c82222"/>
      <path id="Path_1" data-name="Path 1" d="M2.52-14H5.5L7.78,0H5.58l-.4-2.78v.04H2.68L2.28,0H.24Zm2.4,9.36-.98-6.92H3.9L2.94-4.64ZM8.84-14H12.1a3.366,3.366,0,0,1,2.48.79,3.336,3.336,0,0,1,.78,2.43v.86q0,2.18-1.44,2.76v.04a1.717,1.717,0,0,1,1.13.98,4.934,4.934,0,0,1,.33,1.98V-1.7a9.406,9.406,0,0,0,.04.97,2.434,2.434,0,0,0,.2.73H13.38a3.207,3.207,0,0,1-.16-.64,9.628,9.628,0,0,1-.04-1.08V-4.28a2.172,2.172,0,0,0-.31-1.34A1.311,1.311,0,0,0,11.8-6h-.76V0H8.84Zm3,6a1.32,1.32,0,0,0,.99-.34,1.607,1.607,0,0,0,.33-1.14v-1.08a1.777,1.777,0,0,0-.27-1.1,1.02,1.02,0,0,0-.85-.34h-1v4Zm6.74-4h-2.3v-2h6.8v2h-2.3V0h-2.2Zm5.56-2h5.82v2H26.34v3.9h2.84v2H26.34V0h-2.2ZM34.2.2a3.23,3.23,0,0,1-2.48-.92,3.663,3.663,0,0,1-.86-2.6v-7.36a3.663,3.663,0,0,1,.86-2.6,3.23,3.23,0,0,1,2.48-.92,3.23,3.23,0,0,1,2.48.92,3.663,3.663,0,0,1,.86,2.6v7.36a3.663,3.663,0,0,1-.86,2.6A3.23,3.23,0,0,1,34.2.2Zm0-2q1.14,0,1.14-1.38v-7.64q0-1.38-1.14-1.38t-1.14,1.38v7.64Q33.06-1.8,34.2-1.8ZM39.02-14h2.2V-2h3.62V0H39.02Zm6.88,0h2.2V0H45.9ZM52.92.2a3.23,3.23,0,0,1-2.48-.92,3.663,3.663,0,0,1-.86-2.6v-7.36a3.663,3.663,0,0,1,.86-2.6,3.23,3.23,0,0,1,2.48-.92,3.23,3.23,0,0,1,2.48.92,3.663,3.663,0,0,1,.86,2.6v7.36a3.663,3.663,0,0,1-.86,2.6A3.23,3.23,0,0,1,52.92.2Zm0-2q1.14,0,1.14-1.38v-7.64q0-1.38-1.14-1.38t-1.14,1.38v7.64Q51.78-1.8,52.92-1.8Z" transform="translate(-4300 -1279)" fill="#fff"/>
    </g>
  </g>
</svg>
