<svg width="351" height="39" viewBox="0 0 351 39" fill="none" xmlns="http://www.w3.org/2000/svg">
<path d="M350.226 35.0919C347.981 35.0716 345.91 35.5517 343.254 34.4292C342.226 33.9761 340.377 33.4148 339.159 34.0437C339.001 34.1249 338.179 34.0707 337.752 33.9828C335.428 33.4756 332.994 33.2728 330.717 32.8197C325.2 31.6566 319.699 30.4664 313.992 29.5129C309.344 28.7081 304.759 27.7682 300.017 27.0378C292.27 25.8206 284.508 24.5966 276.525 23.6634C275.703 23.562 274.897 23.4064 274.074 23.332C273.331 23.2779 271.988 23.1359 273.268 23.6769C273.916 23.9542 273.079 23.8122 272.81 23.8122C271.956 23.8122 271.15 23.6904 270.328 23.6025C267.561 23.2779 264.763 23.021 261.965 22.7505C257.333 22.2771 252.559 22.2771 247.927 21.682C247.231 21.5941 246.472 21.5738 245.729 21.5197C241.856 21.2627 237.951 21.0058 234.11 20.7488C229.004 20.3836 223.945 20.2551 218.886 20.4242C218.475 20.4377 217.906 20.4783 217.653 20.4107C215.171 19.7818 212.199 20.3363 209.59 19.9576C208.832 19.8426 208.12 20.0523 208.057 20.3092C207.994 20.5527 208.721 20.6879 209.306 20.6812C211.946 20.6271 214.586 21.0869 217.1 20.8502C220.056 20.5459 222.538 21.1207 224.198 21.6144C226.522 22.2703 228.83 22.5341 231.517 22.7099C237.287 23.048 243.105 23.1832 248.765 23.8054C252.654 24.272 256.685 24.5831 260.59 24.9347C269.442 25.6853 278.122 26.7944 286.564 28.1536C290.579 28.8096 294.673 29.4385 298.752 30.4191C297.566 30.4664 296.665 30.4731 295.875 30.277C293.693 29.7225 291.275 29.5399 288.935 29.2356C278.58 27.7952 268.209 26.3886 257.618 25.239C252.922 24.7386 248.227 24.1571 243.421 23.9068C236.94 23.5822 230.6 23.021 224.055 22.8587C219.076 22.7099 214.048 22.3515 208.99 22.1824C206.634 22.1013 205.875 22.3042 205.875 23.0277C205.875 23.2171 205.543 23.3726 205.132 23.3929C202.65 23.5079 201.022 23.3726 200.516 22.8451C199.678 21.9457 197.655 21.7158 195.188 21.8713C192.944 22.0066 190.398 21.824 188.169 22.3853C189.813 22.6355 191.885 22.5205 192.406 23.1765C191.9 23.2982 191.189 23.332 190.667 23.2712C188.991 23.0886 186.873 23.19 185.703 22.6355C184.533 22.0742 183.996 22.0404 182.858 22.6017C182.462 22.791 182.288 22.8654 181.846 22.6828C180.913 22.2974 180.186 22.3244 179.68 22.791C179.364 23.0751 178.621 23.0818 177.878 23.0886C176.613 23.0953 175.348 23.1427 174.084 23.1291C171.712 23.0953 169.468 23.3456 167.634 23.731C165.436 24.1909 163.587 24.2585 161.484 23.9271C159.54 23.6228 157.927 23.8595 156.362 24.2517C156.647 24.5763 158.196 24.2788 158.196 24.6845C158.196 24.8062 158.623 24.8603 159.129 24.8333C163.555 24.6372 167.982 24.4614 172.392 24.3667C174.02 24.3329 175.617 24.245 177.198 24.5695C178.21 24.7724 179.838 24.8874 181.055 24.698C182.763 24.4208 184.518 24.4749 186.225 24.4681C188.454 24.4546 190.778 24.3532 192.691 24.8874C193.56 25.1241 194.193 24.9956 194.967 24.7116C196.074 24.3126 198.066 24.3464 199.062 24.8063C199.805 25.1376 200.674 25.1782 201.702 25.1984C205.259 25.2323 208.784 25.1579 212.341 25.3472C213.89 25.4554 215.424 25.7665 217.036 25.6313C219.534 25.4081 221.984 25.5907 224.466 25.753C226.348 25.8679 228.213 26.1655 230.094 26.0573C232.861 25.8882 235.359 26.1858 238.078 26.6862C235.454 26.7944 233.224 26.5847 230.964 26.4224C230.284 26.3683 229.573 26.2466 228.909 26.2602C222.743 26.3548 216.546 25.6651 210.302 25.8544C206.602 25.9626 202.84 25.6515 199.109 25.7462C195.884 25.8341 192.643 25.8071 189.402 25.8544C184.755 25.9288 180.107 26.0573 175.427 26.1993C170.005 26.3819 164.614 26.6591 159.16 26.9229C154.196 27.1528 149.232 27.0311 144.237 27.3422C142.877 27.4301 141.107 27.7885 140.221 27.1055C140.158 27.0581 139.447 27.0784 139.051 27.0987C136.696 27.2204 134.34 27.3692 132.175 27.7749C128.539 28.485 124.428 28.3768 120.634 28.8569C120.539 28.8705 120.429 28.8637 120.318 28.8502C118.658 28.7217 117.014 28.9381 115.354 29.0328C112.809 29.168 110.374 29.4453 107.987 29.736C106.88 29.8713 105.758 29.9795 104.588 29.9795C102.596 29.9795 100.731 30.1553 98.8812 30.5137C97.8852 30.703 96.7786 30.8451 95.6246 30.8789C91.7198 30.9871 87.8783 31.474 84.4477 32.0555C80.954 32.6506 77.5551 32.9076 74.1878 33.0699C72.0378 33.1849 70.1408 33.4216 68.1647 33.7124C67.1687 33.8746 66.2044 34.0775 65.1926 34.2128C60.3077 34.8417 55.5334 35.4908 51.0437 36.3902C46.6014 37.3235 42.2541 37.7427 37.543 37.9321C38.6971 37.222 40.3728 36.7892 41.8273 36.2685C42.6177 35.9845 43.5504 35.7478 44.4831 35.5247C45.9533 35.173 47.7397 34.7537 48.1982 34.2398C48.6408 33.7259 49.1151 33.6109 50.3008 33.4418C51.5338 33.2728 53.257 33.239 53.6206 32.5898C54.1106 31.8053 55.9603 31.4064 57.5886 31.075C59.2169 30.7436 61.1297 30.5543 62.9003 30.3514C63.7856 30.2567 64.6077 30.1823 64.5761 29.8848C64.5128 29.4182 63.3904 29.6076 62.5209 29.7496C59.8967 30.1418 57.2724 30.5408 54.7272 30.9871C53.2886 31.2238 51.8816 31.4199 50.364 31.5348C48.4669 31.6768 46.475 31.8662 44.7518 32.4207C42.7125 33.0496 40.1356 33.2863 37.9066 33.7326C36.4996 34.0099 34.9188 34.1857 33.6225 34.5915C31.9309 35.1122 29.7176 35.3489 28.4213 36.113C28.1842 36.2482 27.5676 36.3429 27.125 36.397C26.3187 36.4849 25.5757 36.6675 25.0857 36.9245C23.1728 37.9592 20.2324 38.2093 17.9085 38.9329C17.6081 39.0344 17.1812 39.0276 17.0389 38.8653C16.8967 38.7233 17.0074 38.5069 17.3868 38.4731C19.1574 38.3108 19.7106 37.6819 20.5959 37.2017C21.9397 36.4646 23.6629 35.856 25.5916 35.4638C28.0577 34.9296 29.6228 34.3074 30.4449 33.3337C30.8875 32.7927 31.8519 32.2314 33.1324 32.0014C35.1559 31.6295 36.7683 31.102 38.4757 30.5678C39.5191 30.2229 40.4993 29.9727 40.9261 30.5543C41.0526 30.7301 41.5426 30.8248 42.0485 30.7436C43.4081 30.5137 44.7992 30.2635 45.89 29.851C46.4433 29.6414 46.3801 29.4588 45.6213 29.3912C44.6728 29.31 43.7243 29.6211 42.6809 29.7022C43.1552 29.026 44.5464 28.9989 45.6688 28.9178C46.8703 28.8299 48.2298 29.0666 48.704 28.3092C48.7515 28.228 49.2889 28.1198 49.4628 28.2145C50.4904 28.8096 51.5813 28.1672 52.4824 27.9643C53.5099 27.7344 54.3636 27.3692 55.3753 27.0717C54.2845 26.8012 53.0514 26.8688 52.0239 27.1122C49.4312 27.7208 46.3011 27.3421 43.9456 28.2753C40.9261 27.9507 37.875 28.7082 34.7923 29.0598C33.7015 29.1815 33.2431 29.2627 32.7372 29.6819C31.5831 30.6963 29.8916 30.933 27.378 30.5881C30.6978 29.5602 34.4286 28.8164 38.286 27.5924C35.9621 27.7817 34.6026 28.3836 33.0691 28.4241C30.0654 28.5661 27.0776 29.1477 24.3269 29.8037C22.1295 30.3041 19.8372 30.6016 17.6872 31.075C15.9166 31.4604 13.9247 31.7377 12.4386 32.3869C10.8261 33.0834 8.85 33.5839 7.17426 34.2466C5.53014 34.8958 3.75955 35.1595 1.92572 35.2677C0.028666 35.3827 -0.666906 34.5509 0.755887 33.7935C1.15111 33.5839 1.67277 33.3336 2.11542 33.1781C5.59336 31.9676 8.9133 30.7504 11.7905 29.337C12.2015 29.1342 12.5967 29.0057 13.15 28.911C14.478 28.6811 15.5213 28.2415 16.7386 27.917C20.4062 26.8688 23.4889 25.5366 27.5044 24.6778C27.8522 24.6101 27.8364 24.4749 27.7099 24.3802C26.8878 24.2517 25.8603 24.4952 25.1647 24.6778C23.3783 25.1444 21.4655 25.354 19.6633 25.7665C17.2129 26.3548 14.7942 26.6118 12.2806 26.4901C13.7982 25.78 15.4739 25.327 17.1654 24.9212C17.9085 24.7386 18.7463 24.6304 19.3312 24.3599C21.5919 23.2576 24.1846 22.2027 27.5993 21.1613C25.1806 21.2492 23.3783 21.2965 21.4022 21.939C18.0665 22.9871 14.0511 23.7648 11.3478 25.1714C10.3044 25.6718 8.6761 26.1182 6.28897 26.4428C7.52206 25.5366 8.73937 24.8536 10.668 24.3667C12.3438 23.9271 13.9721 23.1833 13.7982 22.8181C13.4662 22.1892 15.2368 21.6279 15.3949 21.0328C15.553 20.4783 17.7978 20.0928 18.9677 20.4039C19.6158 20.573 20.1692 20.5256 21.0544 20.316C27.1092 18.8418 33.0059 17.3608 38.618 15.7649C38.9342 15.6702 39.693 15.5147 38.9658 15.4335C37.0529 15.2239 38.6496 14.9128 39.7088 14.6626C40.9419 14.3921 42.3331 14.196 43.5345 13.9052C44.4831 13.682 46.5698 13.4454 45.0206 13.0261C44.7834 12.9585 45.1787 12.7962 45.5265 12.7691C46.9493 12.6474 47.9452 12.2214 49.3206 12.0794C53.4309 11.6398 57.0827 10.7472 61.1456 10.3009C62.268 10.1859 63.4378 9.90185 64.4812 9.67869C65.5404 9.45553 66.568 9.36089 67.6271 9.25269C68.718 9.14449 70.0143 8.71846 70.3463 8.74551C71.6426 8.85371 72.7493 8.60346 73.9033 8.49526C74.6305 8.42088 75.3419 8.32623 76.0374 8.23156C76.5433 8.16394 76.9386 8.05574 76.733 7.90021C76.575 7.77848 76.2114 7.69055 75.6739 7.75141C74.9309 7.83932 74.1562 8.12334 73.4764 7.79199C74.7411 7.58235 75.9426 7.35243 77.2073 7.19689C79.8316 6.87229 82.361 6.5342 85.0801 6.75736C87.4515 6.94671 87.7676 6.80467 89.6805 6.06081C89.1904 5.87146 87.8625 6.21636 87.3566 5.94586C87.7834 5.85795 87.9731 5.79708 88.1786 5.77003C95.5455 4.85034 103.134 4.60012 110.327 3.51813C110.548 3.48432 110.801 3.47758 111.038 3.45729C111.86 3.36938 112.445 3.4708 112.904 3.60605C115.038 4.2079 115.291 4.11999 117.915 3.39641C119.638 2.91628 121.077 2.13183 124.144 2.20622C124.302 2.54434 122.926 2.85543 123.606 3.20032C124.839 3.20708 126.183 3.10562 127.353 3.0921C129.092 3.07181 129.945 2.6052 131.748 2.62549C134.941 2.64577 135.226 2.46322 134.261 1.59763C134.166 1.50972 133.929 1.42856 133.882 1.33388C133.803 1.1513 134.072 0.988994 134.878 0.988994C136.791 0.988994 138.704 1.02279 140.617 1.0566C139.336 1.32034 138.087 1.46238 136.838 1.59763C135.953 1.68554 135.131 1.7599 135.415 2.07773C135.684 2.37528 136.506 2.3347 137.407 2.2806C141.107 2.11154 144.584 1.71258 147.999 1.24597C148.916 1.12425 150.371 1.19864 150.592 0.786129C149.153 0.360097 146.877 0.786124 145.043 0.569727C145.897 0.333042 146.292 -0.00506548 147.509 0.0760835C149.485 0.211332 151.461 0.00166557 153.422 0.00166557C155.05 0.00166557 156.757 -0.0321135 158.512 0.204571C156.236 0.637366 153.58 0.346575 151.604 0.874044C153.516 1.27303 155.477 1.08367 157.405 0.995763C160.789 0.826702 164.219 0.475055 167.555 0.529154C174.748 0.596778 181.846 0.130185 189.055 0.204571C193.339 0.265433 197.702 -0.153862 202.002 0.305983C202.318 0.339795 202.761 0.312739 203.125 0.299214C207.677 0.116628 212.167 0.380392 216.594 0.752325C217.305 0.806425 218.159 1.02282 218.728 0.874044C221.02 0.292476 224.071 0.691449 226.743 0.6103C227.96 0.58325 228.845 0.339815 230.395 0.49535C233.667 0.806422 237.098 0.81993 240.449 1.07014C244.306 1.32035 248.274 1.58409 251.99 2.34825C248.986 2.34825 246.425 2.20621 243.816 1.9019C242.236 1.73284 240.544 1.66524 238.9 1.54352C238.046 1.48266 237.303 1.47587 237.224 1.73284C237.161 1.92895 237.825 2.05068 238.489 2.07096C241.255 2.15888 243.975 2.44293 246.63 2.69991C252.069 3.17327 257.412 3.82921 262.755 4.45812C266.518 4.93825 270.359 5.28991 274.074 5.78357C276.604 6.10816 279.118 6.52743 281.615 6.79793C284.508 7.09548 285.441 8.0084 288.16 8.27213C283.07 8.25185 278.327 7.21719 272.952 6.87231C274.675 7.81905 277.6 7.99488 280.098 8.61702C278.39 8.58321 277.141 8.34651 275.908 8.17745C272.794 7.74465 269.648 7.48767 266.518 7.40652C264.32 7.3389 262.202 7.29159 260.02 7.00756C257.886 6.76412 255.752 6.64238 253.618 6.78439C255.736 7.11575 257.902 7.3592 260.052 7.62969C260.321 7.66351 260.321 7.74464 260.115 7.78522C259.23 7.87989 258.06 7.4674 256.969 7.75818C259.815 8.19098 262.55 8.36681 265.253 8.61702C266.613 8.74551 268.447 8.91454 268.715 9.25942C269.269 9.94242 270.929 10.0168 272.478 10.2264L278.374 11.0853C280.445 11.3896 282.643 11.6127 283.892 12.3093C284.303 12.546 284.998 12.6406 285.757 12.6812C286.658 12.7353 287.67 12.9247 287.923 13.1343C288.935 13.9864 291.401 14.1351 293.393 14.5882C294.499 14.8317 295.543 14.9939 296.697 15.1292C297.361 15.2103 298.167 15.2983 298.009 15.6161C297.076 15.677 296.27 15.42 295.448 15.2848C294.436 15.1157 293.425 14.9061 292.397 14.9466C290.484 15.0007 288.508 14.6964 286.548 14.5274C285.741 14.4597 284.824 14.2704 284.161 14.2974C281.631 14.3718 279.165 14.0405 276.651 13.7226C275.15 13.5401 273.6 13.2222 271.592 13.4048C274.375 13.9052 276.367 14.5882 279.244 14.7911C278.201 15.0886 276.841 14.9331 276.193 14.7708C273.632 14.1351 272.462 14.5138 270.913 14.9399C277.521 16.0286 283.876 16.9889 289.994 18.152C294.405 18.9703 298.847 19.8088 303.21 20.7015C305.044 21.1072 306.941 21.4521 308.727 21.8916C314.482 23.3388 320.157 24.7927 326.006 26.206C331.097 27.4503 336.029 28.8908 340.187 30.6355C341.151 31.048 342.163 31.3861 343.333 31.7174C345.926 32.4275 347.981 33.4148 350.147 34.3142C351.411 34.7538 351.127 35.0986 350.226 35.0919ZM75.1996 28.201C73.0338 28.4715 70.789 28.7149 68.4809 29.283C71.2949 29.5467 73.4923 29.0868 75.6739 28.7487C76.1956 28.6676 76.6224 28.485 76.4801 28.3295C76.3379 28.1739 75.7213 28.1333 75.1996 28.201ZM105.347 22.2906C99.7823 22.7369 94.2334 23.19 88.7794 23.7446C88.3525 23.7851 87.9415 23.8527 87.5463 23.9203C87.2459 23.9744 87.0404 24.0759 87.1511 24.1773C87.2617 24.2652 87.5146 24.3126 87.8782 24.2788C87.9889 24.272 88.0996 24.272 88.1944 24.2585C93.6169 23.4875 99.3871 23.1833 104.983 22.5544C105.173 22.5341 105.331 22.4664 105.505 22.4191L105.347 22.2906ZM119.86 24.9888C118.927 24.7318 116.524 24.7724 115.496 25.0565C113.03 25.7598 109.268 26.152 106.248 25.9761C105.315 25.922 104.857 26.0641 104.288 26.2331C104.019 26.3075 103.861 26.4022 104.019 26.4969C104.383 26.7268 105.062 26.7538 105.853 26.7132C106.375 26.6862 106.912 26.6591 107.56 26.6253C110.611 26.0032 114.153 26.0911 117.457 25.7462C118.184 25.6718 118.99 25.6312 119.607 25.496C120.176 25.381 120.46 25.1579 119.86 24.9888ZM131.273 23.988C130.878 23.988 130.657 23.9677 130.388 23.846C129.772 23.5619 128.855 23.6904 128.602 23.9948C128.333 24.3194 127.4 24.4749 126.673 24.8941C128.491 24.8536 129.93 24.8333 131.321 24.6372C131.922 24.556 132.475 24.4072 132.443 24.1841C132.412 23.9744 131.795 23.988 131.273 23.988ZM147.715 24.4073C146.023 23.8663 144.505 23.9542 142.83 24.6439C141.818 25.0564 140.695 25.4081 138.957 25.469C138.134 25.496 137.265 25.6109 137.154 25.1917C137.06 24.8468 136.174 24.7116 135.083 24.8063C133.139 24.9821 131.273 25.2188 129.645 25.6516C131.843 25.6651 134.04 25.496 135.479 26.1046C135.668 26.1858 136.506 26.1655 136.965 26.1181C138.214 25.9829 139.494 26.0032 140.711 25.9761C142.324 25.9356 143.589 25.8409 144.6 25.4081C145.486 25.0294 146.529 24.9685 147.572 25.239C149.627 25.7733 151.762 25.2255 153.848 25.1511C154.607 25.1308 154.607 24.7724 154.481 24.556C154.354 24.3599 153.69 24.3667 153.184 24.414C152.568 24.4681 151.983 24.556 151.398 24.6439C149.928 24.84 148.774 24.7454 147.715 24.4073ZM152.536 22.8722C152.157 22.8992 151.999 23.0142 152.062 23.1021C152.157 23.2306 152.505 23.3185 152.963 23.3253C155.097 23.3659 157.042 23.0886 159.018 22.8316C156.805 22.4935 154.671 22.7302 152.536 22.8722Z" fill="#C82222"/>
</svg>
